<svg xmlns="http://www.w3.org/2000/svg" xmlns:xlink="http://www.w3.org/1999/xlink" width="256" height="256" viewBox="0 0 256 256">
  <defs>
    <clipPath id="clip-xml_ui5">
      <rect width="256" height="256"/>
    </clipPath>
  </defs>
  <g id="xml_ui5" clip-path="url(#clip-xml_ui5)">
    <rect width="256" height="256" fill="rgba(255,255,255,0)"/>
    <g id="Group_3271" data-name="Group 3271" transform="translate(-15 -16)">
      <g id="Group_3228" data-name="Group 3228" transform="translate(22 22)">
        <path id="Path_1371" data-name="Path 1371" d="M121.133,0A121.133,121.133,0,1,1,0,121.133,121.133,121.133,0,0,1,121.133,0Z" transform="translate(0 0)" fill="#057eac"/>
        <path id="Path_1365" data-name="Path 1365" d="M1285.534,416.809l160.43-78.855,26.9,55a121.152,121.152,0,1,0-119.124,85.176Z" transform="translate(-1236.007 -235.889)" fill="#078bbd"/>
      </g>
      <g id="Group_3229" data-name="Group 3229" transform="translate(52.942 83.958)">
        <g id="Group_3214" data-name="Group 3214" transform="translate(53.605 0)">
          <path id="Path_1359" data-name="Path 1359" d="M427.771,161.407H379.559a12.342,12.342,0,0,0-12.317,12.334V188.2a12.275,12.275,0,0,0,8.358,11.645,11.907,11.907,0,0,0,3.958.672h48.212a11.937,11.937,0,0,0,3.961-.672,12.272,12.272,0,0,0,8.355-11.645V173.741A12.342,12.342,0,0,0,427.771,161.407Zm1.417,26.792a1.442,1.442,0,0,1-1.417,1.417H379.559a1.431,1.431,0,0,1-1.417-1.417V173.741a1.437,1.437,0,0,1,1.417-1.437h48.212a1.449,1.449,0,0,1,1.417,1.437Z" transform="translate(-367.242 -161.407)" fill="#e9e8e8"/>
        </g>
        <path id="Path_1360" data-name="Path 1360" d="M520.411,179.316l-9.086,77.131a9.913,9.913,0,0,1-9.878,9.884H369.784a9.916,9.916,0,0,1-9.884-9.884l-9.083-77.131a9.913,9.913,0,0,1,9.884-9.878H510.53A9.912,9.912,0,0,1,520.411,179.316Z" transform="translate(-345.586 -145.786)" fill="#f8f8f8"/>
        <path id="Rectangle_456" data-name="Rectangle 456" d="M1.2,0H162.147a1.2,1.2,0,0,1,1.2,1.2V19.561a1.2,1.2,0,0,1-1.2,1.2H1.2A1.2,1.2,0,0,1,0,19.56V1.2A1.2,1.2,0,0,1,1.2,0Z" transform="translate(8.354 41.475)" fill="#d7dcdd"/>
        <path id="Rectangle_457" data-name="Rectangle 457" d="M1.2,0H178.855a1.2,1.2,0,0,1,1.2,1.2V19.561a1.2,1.2,0,0,1-1.2,1.2H1.2A1.2,1.2,0,0,1,0,19.56V1.2A1.2,1.2,0,0,1,1.2,0Z" transform="translate(0 38.437)" fill="#e9eef0"/>
        <g id="Group_3220" data-name="Group 3220" transform="translate(76.813 48.828)">
          <path id="Path_1361" data-name="Path 1361" d="M387.5,180.13v13.132a2.178,2.178,0,0,1-2.162,2.162H361.9a2.163,2.163,0,0,1-2.141-2.162V180.13a2.148,2.148,0,0,1,2.141-2.144h23.435A2.163,2.163,0,0,1,387.5,180.13Z" transform="translate(-359.761 -177.986)" fill="#b8babb"/>
          <path id="Path_1362" data-name="Path 1362" d="M387.5,180.13v7.213H359.761V180.13a2.148,2.148,0,0,1,2.141-2.144h23.435A2.163,2.163,0,0,1,387.5,180.13Z" transform="translate(-359.761 -177.986)" fill="#caced0"/>
        </g>
      </g>
      <g id="Group_3266" data-name="Group 3266" transform="translate(154.522 163.839)">
        <circle id="Ellipse_25" data-name="Ellipse 25" cx="50" cy="50" r="50" transform="translate(0.479 0.16)" fill="#e6952d"/>
        <path id="Path_1380" data-name="Path 1380" d="M76.743,43.552c-.129-.049,17.543,15.061,20.163,19.422,2.521,4.2,3.631,8.717,1.676,13.078-3.282,7.325-10.538,3.584-10.538,3.584A30.951,30.951,0,0,0,90.887,76a5.562,5.562,0,0,0,.8-4.037,11.646,11.646,0,0,1-2.081,1.606,23.244,23.244,0,0,1-2.122.989L88.6,65.411a20.972,20.972,0,0,1-2.534,3.153,13.309,13.309,0,0,1-3.4,2.286l.317-7.677a.176.176,0,0,0-.34-.076,16.539,16.539,0,0,1-4.735,6.578C73.8,73.2,66.265,76.185,64.746,78.081a5.345,5.345,0,0,0-.845,4.647,5.489,5.489,0,0,1,3.25-1.075,5.225,5.225,0,0,1,5.53,5.532C72.651,90,68.066,95.32,61.2,92.275,55.66,89.822,49.8,82.525,54.141,70.152,56.8,62.556,64.717,57,68.17,54.871a.254.254,0,0,0-.207-.46c-6.168,1.822-25.632,9.046-25.2,27.578a34.517,34.517,0,0,0,68.946,1.2C113.063,63.226,97.268,51.253,76.743,43.552Z" transform="translate(-27.445 -29.537)" fill="#fff"/>
      </g>
    </g>
  </g>
</svg>
